<?xml version="1.0" encoding="UTF-8"?>
<svg version="1.1" xmlns="http://www.w3.org/2000/svg" width="512" height="512">
<path d="M0 0 C0.98935547 -0.00128906 1.97871094 -0.00257812 2.99804688 -0.00390625 C4.04154297 -0.00003906 5.08503906 0.00382812 6.16015625 0.0078125 C7.16884766 0.00394531 8.17753906 0.00007813 9.21679688 -0.00390625 C16.99955163 0.00611662 24.65209115 0.2309825 32.22265625 2.1328125 C33.50140625 2.2771875 34.78015625 2.4215625 36.09765625 2.5703125 C39.68593607 2.99324051 42.80179236 3.94598217 46.22265625 5.1328125 C47.65783931 5.43567432 49.09561759 5.7263802 50.53515625 6.0078125 C54.64123263 6.8787984 58.21104408 8.31365484 61.984375 10.1328125 C64.3003515 11.21382989 64.3003515 11.21382989 67.1328125 12.0859375 C76.21633518 15.16354063 87.37328492 20.28344117 94.22265625 27.1328125 C95.15078125 27.7309375 96.07890625 28.3290625 97.03515625 28.9453125 C100.1706226 31.09710314 102.54215973 33.45231598 105.22265625 36.1328125 C106.14433594 36.72964844 107.06601562 37.32648438 108.015625 37.94140625 C111.37330137 40.23575027 114.1965121 42.8099417 117.03515625 45.6953125 C117.52435547 46.17677734 118.01355469 46.65824219 118.51757812 47.15429688 C120.82078913 49.47025041 122.17497985 50.9897833 123.22265625 54.1328125 C124.53395547 55.48782169 125.86957312 56.81952593 127.22265625 58.1328125 C128.23670882 59.45548977 129.23533883 60.79006081 130.22265625 62.1328125 C131.33640625 63.3703125 131.33640625 63.3703125 132.47265625 64.6328125 C140.47097732 74.19236741 147.10414427 87.10426628 150.22265625 99.1328125 C151.28614903 101.70526107 152.38249187 104.25823871 153.515625 106.80078125 C154.29873052 109.38373151 154.12639837 110.62881364 153.22265625 113.1328125 C153.88265625 113.1328125 154.54265625 113.1328125 155.22265625 113.1328125 C155.36703125 114.2053125 155.51140625 115.2778125 155.66015625 116.3828125 C156.11346793 119.85168138 156.11346793 119.85168138 156.7265625 122.07421875 C157.45302658 125.08875868 157.65886095 128.12426016 157.94140625 131.20703125 C158.02735487 133.13667752 158.02735487 133.13667752 159.22265625 134.1328125 C159.21351889 137.111591 159.08945681 140.07863441 158.96484375 143.0546875 C159.25897602 146.56644848 160.0359417 148.38670586 162.22265625 151.1328125 C163.21265625 151.1328125 164.20265625 151.1328125 165.22265625 151.1328125 C165.22265625 151.7928125 165.22265625 152.4528125 165.22265625 153.1328125 C166.21265625 152.8028125 167.20265625 152.4728125 168.22265625 152.1328125 C170.08984375 152.83984375 170.08984375 152.83984375 172.09765625 153.9453125 C174.30753002 155.12659048 176.37249388 156.18900161 178.72265625 157.0703125 C184.38728751 159.47778079 188.96305897 162.80260281 193.22265625 167.1953125 C196.7043139 170.70852596 200.47871245 173.90267154 204.2109375 177.14453125 C205.20673828 178.12873047 205.20673828 178.12873047 206.22265625 179.1328125 C206.22265625 179.7928125 206.22265625 180.4528125 206.22265625 181.1328125 C206.92390625 181.7721875 207.62515625 182.4115625 208.34765625 183.0703125 C214.13114613 188.62312187 217.34700208 196.4738913 219.22265625 204.1328125 C219.55652344 204.76445312 219.89039063 205.39609375 220.234375 206.046875 C221.31239524 208.32222207 221.58160081 210.07134471 221.78515625 212.5703125 C221.98586324 214.92554762 222.22781598 217.15658155 222.72973633 219.46875 C223.21122672 222.07103984 223.35186973 224.431767 223.35546875 227.07421875 C223.35675781 227.98751953 223.35804688 228.90082031 223.359375 229.84179688 C223.35550781 230.78345703 223.35164062 231.72511719 223.34765625 232.6953125 C223.35152344 233.64083984 223.35539063 234.58636719 223.359375 235.56054688 C223.35808594 236.47255859 223.35679687 237.38457031 223.35546875 238.32421875 C223.35377686 239.56473999 223.35377686 239.56473999 223.35205078 240.83032227 C223.22606694 243.07212157 222.82007222 244.97541555 222.22265625 247.1328125 C221.87686857 249.13069688 221.54122076 251.13040701 221.22265625 253.1328125 C220.56265625 253.1328125 219.90265625 253.1328125 219.22265625 253.1328125 C219.43148438 253.67421875 219.6403125 254.215625 219.85546875 254.7734375 C220.91940576 261.60979869 214.95872319 270.0158883 211.3359375 275.609375 C210.22265625 277.1328125 210.22265625 277.1328125 208.22265625 279.1328125 C207.21534545 280.46063128 206.21652959 281.79490609 205.22265625 283.1328125 C201.38633612 288.12002867 197.31584804 292.42867302 192.22265625 296.1328125 C191.41828125 296.8753125 190.61390625 297.6178125 189.78515625 298.3828125 C183.01172273 304.06765849 174.71903377 307.92335262 166.22265625 310.1328125 C165.08828125 310.4834375 163.95390625 310.8340625 162.78515625 311.1953125 C160.05442203 311.91392677 157.62800694 312.37812454 154.84765625 312.6953125 C151.41896255 312.73074391 151.41896255 312.73074391 150.22265625 314.1328125 C148.33327512 314.23135186 146.44015341 314.25836908 144.54820442 314.25865364 C143.30797464 314.26126139 142.06774487 314.26386914 140.78993237 314.26655591 C139.39577223 314.26439337 138.00161224 314.2621367 136.60745239 314.25979614 C135.14029809 314.26094699 133.67314408 314.26253426 132.20599067 314.26452339 C128.15507384 314.26872183 124.10418038 314.2666237 120.05326343 314.26353717 C115.6918997 314.26128533 111.33054015 314.26476162 106.96917725 314.26751709 C98.41708408 314.27197633 89.86499967 314.27099757 81.31290616 314.26810445 C74.36453675 314.26585072 67.41616981 314.26553776 60.46780014 314.26662827 C59.4807732 314.2667815 58.49374625 314.26693473 57.4768094 314.26709261 C55.47197613 314.26741232 53.46714286 314.26773653 51.46230958 314.2680652 C32.63829172 314.27092052 13.81427872 314.26763231 -5.00973834 314.26226483 C-21.17527722 314.25779813 -37.34080891 314.25857152 -53.50634766 314.26318359 C-72.25757183 314.26853083 -91.00879173 314.27064436 -109.76001656 314.26757133 C-111.75829641 314.26725277 -113.75657626 314.2669384 -115.75485611 314.26662827 C-116.73816224 314.26647399 -117.72146837 314.26631971 -118.73457166 314.26616076 C-125.67670558 314.26529595 -132.6188368 314.26675774 -139.56097031 314.26910782 C-148.01824982 314.27190773 -156.47552005 314.27116356 -164.93279849 314.26582707 C-169.2510505 314.26319244 -173.569287 314.26218098 -177.88753891 314.26547623 C-181.83646934 314.26844413 -185.78536983 314.26683804 -189.73429753 314.26149867 C-191.16701649 314.2603766 -192.59973795 314.26096107 -194.03245531 314.26337446 C-195.97203838 314.26639238 -197.91162848 314.26271479 -199.85120964 314.25865364 C-200.93097191 314.25849129 -202.01073417 314.25832894 -203.12321651 314.25816166 C-205.77734375 314.1328125 -205.77734375 314.1328125 -208.77734375 313.1328125 C-210.2328562 312.96109474 -211.69183388 312.81743705 -213.15234375 312.6953125 C-216.71191512 312.32787287 -219.49439631 311.60149951 -222.77734375 310.1328125 C-223.81375 309.86082031 -224.85015625 309.58882813 -225.91796875 309.30859375 C-230.1690841 308.114939 -233.97682928 306.25396258 -237.90234375 304.2578125 C-238.59199219 303.91878906 -239.28164062 303.57976562 -239.9921875 303.23046875 C-243.97799734 301.22613225 -247.37530275 299.06130933 -250.77734375 296.1328125 C-251.43734375 295.6378125 -252.09734375 295.1428125 -252.77734375 294.6328125 C-267.03730507 283.93784151 -279.10373562 269.58094953 -283.77734375 252.1328125 C-284.16921875 251.0396875 -284.56109375 249.9465625 -284.96484375 248.8203125 C-285.77734375 246.1328125 -285.77734375 246.1328125 -284.77734375 244.1328125 C-285.43734375 244.1328125 -286.09734375 244.1328125 -286.77734375 244.1328125 C-286.83792969 243.52953125 -286.89851563 242.92625 -286.9609375 242.3046875 C-287.04472656 241.50546875 -287.12851562 240.70625 -287.21484375 239.8828125 C-287.29605469 239.09390625 -287.37726563 238.305 -287.4609375 237.4921875 C-287.71046941 235.20512788 -287.71046941 235.20512788 -288.28881836 233.33129883 C-288.87274316 230.7034913 -288.9070111 228.28967878 -288.91015625 225.59765625 C-288.91144531 224.54126953 -288.91273438 223.48488281 -288.9140625 222.39648438 C-288.91019531 221.29884766 -288.90632813 220.20121094 -288.90234375 219.0703125 C-288.90621094 217.96880859 -288.91007812 216.86730469 -288.9140625 215.73242188 C-288.91277344 214.67732422 -288.91148437 213.62222656 -288.91015625 212.53515625 C-288.90902832 211.57085693 -288.90790039 210.60655762 -288.90673828 209.61303711 C-288.77734375 207.1328125 -288.77734375 207.1328125 -287.77734375 204.1328125 C-287.77734375 203.1428125 -287.77734375 202.1528125 -287.77734375 201.1328125 C-287.11734375 201.1328125 -286.45734375 201.1328125 -285.77734375 201.1328125 C-285.96941406 200.55273438 -286.16148437 199.97265625 -286.359375 199.375 C-286.84543486 196.7675387 -286.48771661 195.67198636 -285.46484375 193.2578125 C-284.49142507 190.8812678 -283.60763334 188.58973918 -282.83984375 186.1328125 C-280.23263927 178.77129397 -276.33883002 170.69429877 -270.77734375 165.1328125 C-270.36484375 164.5759375 -269.95234375 164.0190625 -269.52734375 163.4453125 C-265.40674643 158.00023747 -261.14211696 153.40273403 -255.77734375 149.1328125 C-254.69393365 148.15373078 -253.61060427 147.17455972 -252.52734375 146.1953125 C-244.14369593 139.01196668 -233.56765245 133.5551267 -222.77734375 131.1328125 C-222.11734375 131.4628125 -221.45734375 131.7928125 -220.77734375 132.1328125 C-220.77734375 131.4728125 -220.77734375 130.8128125 -220.77734375 130.1328125 C-219.45734375 130.4628125 -218.13734375 130.7928125 -216.77734375 131.1328125 C-216.77734375 130.4728125 -216.77734375 129.8128125 -216.77734375 129.1328125 C-215.78734375 128.4728125 -214.79734375 127.8128125 -213.77734375 127.1328125 C-213.19985572 125.16919386 -213.19985572 125.16919386 -213.08984375 123.0078125 C-212.98671875 121.7290625 -212.88359375 120.4503125 -212.77734375 119.1328125 C-212.11734375 119.1328125 -211.45734375 119.1328125 -210.77734375 119.1328125 C-211.10734375 118.1428125 -211.43734375 117.1528125 -211.77734375 116.1328125 C-210.75931847 113.67963411 -209.6961017 111.41136968 -208.46484375 109.0703125 C-208.14322266 108.43287109 -207.82160156 107.79542969 -207.49023438 107.13867188 C-205.50411123 103.26838263 -203.43901598 100.77751878 -200.33984375 97.7578125 C-198.25581477 95.62295355 -196.51903123 93.53799997 -194.77734375 91.1328125 C-186.92287298 83.27834173 -177.94353645 76.96000767 -166.77734375 75.1328125 C-166.11734375 75.4628125 -165.45734375 75.7928125 -164.77734375 76.1328125 C-164.77734375 75.4728125 -164.77734375 74.8128125 -164.77734375 74.1328125 C-163.97296875 74.1534375 -163.16859375 74.1740625 -162.33984375 74.1953125 C-159.8437949 74.42914871 -159.8437949 74.42914871 -158.77734375 73.1328125 C-155.97556409 73.03253828 -153.20385263 72.99407961 -150.40234375 73.0078125 C-149.62117187 73.00394531 -148.84 73.00007813 -148.03515625 72.99609375 C-144.70074915 73.00180335 -141.96127389 73.07150245 -138.77734375 74.1328125 C-137.78734375 74.1328125 -136.79734375 74.1328125 -135.77734375 74.1328125 C-135.77734375 74.7928125 -135.77734375 75.4528125 -135.77734375 76.1328125 C-134.97296875 75.8234375 -134.97296875 75.8234375 -134.15234375 75.5078125 C-130.92247665 74.99783348 -128.77512512 75.93369995 -125.77734375 77.1328125 C-125.44734375 77.4628125 -125.11734375 77.7928125 -124.77734375 78.1328125 C-124.43960938 77.50632812 -124.101875 76.87984375 -123.75390625 76.234375 C-123.30789062 75.41710937 -122.861875 74.59984375 -122.40234375 73.7578125 C-121.96148437 72.94570312 -121.520625 72.13359375 -121.06640625 71.296875 C-119.77734375 69.1328125 -119.77734375 69.1328125 -117.77734375 67.1328125 C-117.03484375 65.8953125 -117.03484375 65.8953125 -116.27734375 64.6328125 C-114.77734375 62.1328125 -114.77734375 62.1328125 -112.77734375 60.1328125 C-111.19282696 58.04413127 -109.63526123 55.93810682 -108.08984375 53.8203125 C-106.16280202 51.58077752 -104.33028559 49.83901929 -102.08984375 47.9453125 C-97.84523517 44.34575701 -94.27310307 40.29771581 -90.66015625 36.07421875 C-90.03882813 35.43355469 -89.4175 34.79289062 -88.77734375 34.1328125 C-88.11734375 34.1328125 -87.45734375 34.1328125 -86.77734375 34.1328125 C-85.75436453 33.15633233 -84.75830123 32.15149912 -83.77734375 31.1328125 C-82.44861761 30.12669888 -81.11484203 29.12723501 -79.77734375 28.1328125 C-79.2565625 27.69582031 -78.73578125 27.25882813 -78.19921875 26.80859375 C-72.02089283 21.77065977 -64.93839062 18.53690489 -57.79443359 15.11181641 C-55.04207416 13.77594599 -52.32051037 12.38107289 -49.60009766 10.98144531 C-46.7593366 9.6588515 -43.80338113 8.91734071 -40.77734375 8.1328125 C-39.68421875 7.7409375 -38.59109375 7.3490625 -37.46484375 6.9453125 C-34.77734375 6.1328125 -34.77734375 6.1328125 -32.77734375 7.1328125 C-32.77734375 6.4728125 -32.77734375 5.8128125 -32.77734375 5.1328125 C-30.79734375 5.6278125 -30.79734375 5.6278125 -28.77734375 6.1328125 C-28.77734375 5.4728125 -28.77734375 4.8128125 -28.77734375 4.1328125 C-26.79734375 4.6278125 -26.79734375 4.6278125 -24.77734375 5.1328125 C-24.77734375 4.4728125 -24.77734375 3.8128125 -24.77734375 3.1328125 C-23.12734375 3.4628125 -21.47734375 3.7928125 -19.77734375 4.1328125 C-19.77734375 3.4728125 -19.77734375 2.8128125 -19.77734375 2.1328125 C-18.57078125 2.16375 -18.57078125 2.16375 -17.33984375 2.1953125 C-14.8437949 2.42914871 -14.8437949 2.42914871 -13.77734375 1.1328125 C-11.11067708 1.1328125 -8.44401042 1.1328125 -5.77734375 1.1328125 C-4.1371626 -0.50736865 -2.25788409 0.0028465 0 0 Z " fill="#259AF2" transform="translate(288.77734375,98.8671875)"/>
<path d="" fill="#00FFFF" transform="translate(0,0)"/>
<path d="" fill="#3399FF" transform="translate(0,0)"/>
<path d="" fill="#3399FF" transform="translate(0,0)"/>
<path d="" fill="#00FFFF" transform="translate(0,0)"/>
<path d="" fill="#2AAAFF" transform="translate(0,0)"/>
<path d="" fill="#2AAAFF" transform="translate(0,0)"/>
<path d="" fill="#4080FF" transform="translate(0,0)"/>
<path d="" fill="#00AAFF" transform="translate(0,0)"/>
<path d="" fill="#1C8EFF" transform="translate(0,0)"/>
<path d="" fill="#2492FF" transform="translate(0,0)"/>
<path d="" fill="#3399FF" transform="translate(0,0)"/>
<path d="" fill="#4080FF" transform="translate(0,0)"/>
<path d="" fill="#0080FF" transform="translate(0,0)"/>
<path d="" fill="#2AAAFF" transform="translate(0,0)"/>
<path d="" fill="#00AAFF" transform="translate(0,0)"/>
<path d="" fill="#00AAFF" transform="translate(0,0)"/>
<path d="" fill="#4080FF" transform="translate(0,0)"/>
<path d="" fill="#0080FF" transform="translate(0,0)"/>
<path d="" fill="#00FFFF" transform="translate(0,0)"/>
<path d="" fill="#00AAFF" transform="translate(0,0)"/>
<path d="" fill="#3399FF" transform="translate(0,0)"/>
<path d="" fill="#209FFF" transform="translate(0,0)"/>
<path d="" fill="#2A95EA" transform="translate(0,0)"/>
<path d="" fill="#1C8EFF" transform="translate(0,0)"/>
<path d="" fill="#3399FF" transform="translate(0,0)"/>
<path d="" fill="#0080FF" transform="translate(0,0)"/>
<path d="" fill="#209FFF" transform="translate(0,0)"/>
<path d="" fill="#00FFFF" transform="translate(0,0)"/>
<path d="" fill="#00AAFF" transform="translate(0,0)"/>
<path d="" fill="#2492FF" transform="translate(0,0)"/>
<path d="" fill="#00AAFF" transform="translate(0,0)"/>
<path d="" fill="#1C8EFF" transform="translate(0,0)"/>
<path d="" fill="#2D96F0" transform="translate(0,0)"/>
<path d="" fill="#2299EE" transform="translate(0,0)"/>
<path d="" fill="#279DEB" transform="translate(0,0)"/>
<path d="" fill="#2EA2E8" transform="translate(0,0)"/>
<path d="" fill="#1C8EFF" transform="translate(0,0)"/>
<path d="" fill="#2492FF" transform="translate(0,0)"/>
<path d="" fill="#3399FF" transform="translate(0,0)"/>
<path d="" fill="#4080FF" transform="translate(0,0)"/>
<path d="" fill="#209FFF" transform="translate(0,0)"/>
<path d="" fill="#0080FF" transform="translate(0,0)"/>
<path d="" fill="#0080FF" transform="translate(0,0)"/>
<path d="" fill="#4080FF" transform="translate(0,0)"/>
<path d="" fill="#00AAFF" transform="translate(0,0)"/>
<path d="" fill="#3399FF" transform="translate(0,0)"/>
</svg>
